
<svg xmlns="http://www.w3.org/2000/svg" width="388.489" height="138.779" viewBox="0 0 388.489 138.779">
  <g id="Horizontal_Lockup_White" data-name="Horizontal Lockup White" transform="translate(-222.28 -276.46)">
    <g id="Group_395" data-name="Group 395" transform="translate(360.293 322.922)">
      <path id="Path_8569" data-name="Path 8569" d="M777.464,454.8l-10.932,15.869L755.6,454.8h-9.15l15.508,22.509L746.45,499.819h9.15l10.932-15.869,10.932,15.869h9.147l-15.506-22.509L786.611,454.8Z" transform="translate(-746.45 -454.305)" fill="#fff"/>
      <path id="Path_8570" data-name="Path 8570" d="M1237.434,454.8,1226.5,470.666,1215.575,454.8h-9.155l15.508,22.509-15.508,22.509h9.155L1226.5,483.95l10.932,15.869h9.147l-15.5-22.509,15.5-22.509Z" transform="translate(-1085.311 -454.305)" fill="#fff"/>
      <path id="Path_8571" data-name="Path 8571" d="M982.979,454.8,963.7,499.819h8.315l3.939-9.2h22.359l3.942,9.2h8.312L991.291,454.8Zm11.78,27.507H979.516l7.62-17.8Z" transform="translate(-906.499 -454.305)" fill="#fff"/>
      <rect id="Rectangle_209" data-name="Rectangle 209" width="8.312" height="45.019" transform="translate(184.356 0.495)" fill="#fff"/>
      <path id="Path_8572" data-name="Path 8572" d="M1586.495,472.343c-8.562-2.048-10.608-3.578-10.608-7.091,0-3,2.691-5.366,7.291-5.366,4.092,0,8.107,1.6,12.135,4.6l4.215-5.943a24.769,24.769,0,0,0-16.219-5.621c-8.884,0-15.271,5.242-15.271,13.031,0,8.3,5.366,11.116,14.89,13.41,8.3,1.925,10.092,3.644,10.092,6.906,0,3.444-3.067,5.682-7.92,5.682-5.561,0-9.839-2.1-14.121-5.814l-4.729,5.624a27.542,27.542,0,0,0,18.652,7.154c9.392,0,15.972-4.976,15.972-13.412C1600.868,478.025,1595.953,474.647,1586.495,472.343Z" transform="translate(-1350.398 -452.92)" fill="#fff"/>
    </g>
    <g id="XMLID_5037_" transform="translate(222.28 276.46)">
      <path id="XMLID_5409_" d="M295.38,682.867a4.555,4.555,0,1,1-4.558-4.547A4.562,4.562,0,0,1,295.38,682.867Z" transform="translate(-269.422 -572.511)" fill="#fff"/>
      <path id="XMLID_5408_" d="M399.057,642.587a4.554,4.554,0,1,1-4.555-4.547A4.559,4.559,0,0,1,399.057,642.587Z" transform="translate(-345.803 -542.837)" fill="#fff"/>
      <path id="XMLID_5407_" d="M572.168,623.557a4.554,4.554,0,1,1-4.555-4.547A4.559,4.559,0,0,1,572.168,623.557Z" transform="translate(-473.333 -528.817)" fill="#fff"/>
      <path id="XMLID_5406_" d="M639.87,699.9a4.555,4.555,0,1,1-4.558-4.547A4.56,4.56,0,0,1,639.87,699.9Z" transform="translate(-523.208 -585.057)" fill="#fff"/>
      <path id="XMLID_5405_" d="M511.62,514.377a4.555,4.555,0,1,1-4.558-4.547A4.56,4.56,0,0,1,511.62,514.377Z" transform="translate(-428.726 -448.384)" fill="#fff"/>
      <path id="XMLID_5404_" d="M511.62,411.827a4.555,4.555,0,1,1-4.558-4.547A4.56,4.56,0,0,1,511.62,411.827Z" transform="translate(-428.726 -372.835)" fill="#fff"/>
      <path id="XMLID_5403_" d="M615.078,371.64a4.554,4.554,0,1,1-4.555-4.55A4.559,4.559,0,0,1,615.078,371.64Z" transform="translate(-504.945 -343.227)" fill="#fff"/>
      <path id="XMLID_5402_" d="M270.587,354.617a4.554,4.554,0,1,1-4.555-4.547A4.559,4.559,0,0,1,270.587,354.617Z" transform="translate(-251.159 -330.689)" fill="#fff"/>
      <path id="XMLID_5401_" d="M338.287,430.947a4.554,4.554,0,1,1-4.555-4.547A4.559,4.559,0,0,1,338.287,430.947Z" transform="translate(-301.033 -386.921)" fill="#fff"/>
      <path id="XMLID_5400_" d="M401.408,540.117a4.554,4.554,0,1,1-4.555-4.547A4.559,4.559,0,0,1,401.408,540.117Z" transform="translate(-347.534 -467.347)" fill="#fff"/>
      <path id="XMLID_5399_" d="M459.147,454.447a4.554,4.554,0,1,1-4.555-4.547A4.559,4.559,0,0,1,459.147,454.447Z" transform="translate(-390.071 -404.234)" fill="#fff"/>
      <path id="XMLID_5398_" d="M550.169,759.921a1.2,1.2,0,1,1-1.2-1.2A1.2,1.2,0,0,1,550.169,759.921Z" transform="translate(-462.069 -631.742)" fill="#fff"/>
      <path id="XMLID_5397_" d="M697.789,749.551a1.2,1.2,0,1,1-1.2-1.2A1.2,1.2,0,0,1,697.789,749.551Z" transform="translate(-570.821 -624.102)" fill="#fff"/>
      <path id="XMLID_5396_" d="M612.1,711.561a1.2,1.2,0,1,1-1.2-1.2A1.2,1.2,0,0,1,612.1,711.561Z" transform="translate(-507.693 -596.115)" fill="#fff"/>
      <path id="XMLID_5395_" d="M596.139,669.888a1.2,1.2,0,1,1-1.2-1.2A1.2,1.2,0,0,1,596.139,669.888Z" transform="translate(-495.935 -565.417)" fill="#fff"/>
      <path id="XMLID_5394_" d="M625.876,631.061a1.2,1.2,0,1,1-1.2-1.2A1.2,1.2,0,0,1,625.876,631.061Z" transform="translate(-517.845 -536.81)" fill="#fff"/>
      <path id="XMLID_5393_" d="M547.729,639.508a1.2,1.2,0,1,1-1.2-1.2A1.2,1.2,0,0,1,547.729,639.508Z" transform="translate(-460.272 -543.036)" fill="#fff"/>
      <path id="XMLID_5392_" d="M530.946,630.531a1.2,1.2,0,1,1-1.2-1.2A1.2,1.2,0,0,1,530.946,630.531Z" transform="translate(-447.91 -536.42)" fill="#fff"/>
      <path id="XMLID_5391_" d="M551.759,603.008a1.2,1.2,0,1,1-1.2-1.2A1.2,1.2,0,0,1,551.759,603.008Z" transform="translate(-463.24 -516.146)" fill="#fff"/>
      <path id="XMLID_5390_" d="M512.536,602.538a1.2,1.2,0,1,1-1.2-1.2A1.2,1.2,0,0,1,512.536,602.538Z" transform="translate(-434.347 -515.8)" fill="#fff"/>
      <path id="XMLID_5389_" d="M512.646,585.588a1.2,1.2,0,1,1-1.2-1.2A1.2,1.2,0,0,1,512.646,585.588Z" transform="translate(-434.428 -503.313)" fill="#fff"/>
      <path id="XMLID_5388_" d="M506.386,617.188a1.2,1.2,0,1,1-1.2-1.2A1.2,1.2,0,0,1,506.386,617.188Z" transform="translate(-429.816 -526.592)" fill="#fff"/>
      <path id="XMLID_5387_" d="M519.939,661.931a1.2,1.2,0,1,1-1.2-1.2A1.2,1.2,0,0,1,519.939,661.931Z" transform="translate(-439.799 -559.552)" fill="#fff"/>
      <path id="XMLID_5386_" d="M503.2,668.488a1.2,1.2,0,1,1-1.2-1.2A1.2,1.2,0,0,1,503.2,668.488Z" transform="translate(-427.466 -564.385)" fill="#fff"/>
      <path id="XMLID_5385_" d="M508.469,724.4a1.2,1.2,0,1,1-1.2-1.2A1.2,1.2,0,0,1,508.469,724.4Z" transform="translate(-431.349 -605.574)" fill="#fff"/>
      <path id="XMLID_5384_" d="M363.039,694.9a1.2,1.2,0,1,1-1.2-1.2A1.2,1.2,0,0,1,363.039,694.9Z" transform="translate(-324.21 -583.841)" fill="#fff"/>
      <path id="XMLID_5383_" d="M359.839,657.481a1.2,1.2,0,1,1-1.2-1.2A1.2,1.2,0,0,1,359.839,657.481Z" transform="translate(-321.853 -556.274)" fill="#fff"/>
      <path id="XMLID_5382_" d="M294.409,645.071a1.2,1.2,0,1,1-1.2-1.2A1.2,1.2,0,0,1,294.409,645.071Z" transform="translate(-273.65 -547.132)" fill="#fff"/>
      <path id="XMLID_5381_" d="M247.179,710.718a1.2,1.2,0,1,1-1.2-1.2A1.2,1.2,0,0,1,247.179,710.718Z" transform="translate(-238.856 -595.496)" fill="#fff"/>
      <path id="XMLID_5380_" d="M250.566,735.691a1.2,1.2,0,1,1-1.2-1.2A1.2,1.2,0,0,1,250.566,735.691Z" transform="translate(-241.353 -613.892)" fill="#fff"/>
      <path id="XMLID_5379_" d="M293.359,754.518a1.2,1.2,0,1,1-1.2-1.2A1.2,1.2,0,0,1,293.359,754.518Z" transform="translate(-272.877 -627.764)" fill="#fff"/>
      <path id="XMLID_5378_" d="M372.679,762.778a1.2,1.2,0,1,1-1.2-1.2A1.2,1.2,0,0,1,372.679,762.778Z" transform="translate(-331.312 -633.849)" fill="#fff"/>
      <path id="XMLID_5377_" d="M412.089,606.371a1.2,1.2,0,1,1-1.2-1.2A1.2,1.2,0,0,1,412.089,606.371Z" transform="translate(-360.345 -518.621)" fill="#fff"/>
      <path id="XMLID_5376_" d="M364.826,560.4a1.2,1.2,0,1,1-1.2-1.2A1.2,1.2,0,0,1,364.826,560.4Z" transform="translate(-325.529 -484.755)" fill="#fff"/>
      <path id="XMLID_5375_" d="M438.059,539.211a1.2,1.2,0,1,1-1.2-1.2A1.2,1.2,0,0,1,438.059,539.211Z" transform="translate(-379.477 -469.144)" fill="#fff"/>
      <path id="XMLID_5374_" d="M487.2,530.881a1.2,1.2,0,1,1-1.2-1.2A1.2,1.2,0,0,1,487.2,530.881Z" transform="translate(-415.679 -463.008)" fill="#fff"/>
      <path id="XMLID_5373_" d="M547.2,542.411a1.2,1.2,0,1,1-1.2-1.2A1.2,1.2,0,0,1,547.2,542.411Z" transform="translate(-459.881 -471.502)" fill="#fff"/>
      <path id="XMLID_5372_" d="M557.706,512.888a1.2,1.2,0,1,1-1.2-1.2A1.2,1.2,0,0,1,557.706,512.888Z" transform="translate(-467.624 -449.754)" fill="#fff"/>
      <path id="XMLID_5371_" d="M510.419,466.921a1.2,1.2,0,1,1-1.2-1.2A1.2,1.2,0,0,1,510.419,466.921Z" transform="translate(-432.785 -415.888)" fill="#fff"/>
      <path id="XMLID_5370_" d="M472.309,438.341a1.2,1.2,0,1,1-1.206-1.2A1.2,1.2,0,0,1,472.309,438.341Z" transform="translate(-404.709 -394.833)" fill="#fff"/>
      <path id="XMLID_5369_" d="M409.879,487.7a1.2,1.2,0,1,1-1.2-1.2A1.2,1.2,0,0,1,409.879,487.7Z" transform="translate(-358.717 -431.197)" fill="#fff"/>
      <path id="XMLID_5368_" d="M409.989,470.778a1.2,1.2,0,1,1-1.2-1.2A1.2,1.2,0,0,1,409.989,470.778Z" transform="translate(-358.798 -418.732)" fill="#fff"/>
      <path id="XMLID_5367_" d="M416.129,456.1a1.2,1.2,0,1,1-1.2-1.2A1.2,1.2,0,0,1,416.129,456.1Z" transform="translate(-363.322 -407.917)" fill="#fff"/>
      <path id="XMLID_5366_" d="M370.759,470.291a1.2,1.2,0,1,1-1.2-1.2A1.2,1.2,0,0,1,370.759,470.291Z" transform="translate(-329.897 -418.371)" fill="#fff"/>
      <path id="XMLID_5365_" d="M391.579,442.758a1.2,1.2,0,1,1-1.2-1.2A1.2,1.2,0,0,1,391.579,442.758Z" transform="translate(-345.236 -398.089)" fill="#fff"/>
      <path id="XMLID_5364_" d="M374.816,433.788a1.2,1.2,0,1,1-1.2-1.2A1.2,1.2,0,0,1,374.816,433.788Z" transform="translate(-332.888 -391.481)" fill="#fff"/>
      <path id="XMLID_5363_" d="M296.629,442.238a1.2,1.2,0,1,1-1.2-1.2A1.2,1.2,0,0,1,296.629,442.238Z" transform="translate(-275.286 -397.706)" fill="#fff"/>
      <path id="XMLID_5362_" d="M326.366,403.408a1.2,1.2,0,1,1-1.2-1.2A1.2,1.2,0,0,1,326.366,403.408Z" transform="translate(-297.195 -369.1)" fill="#fff"/>
      <path id="XMLID_5361_" d="M402.576,411.358a1.2,1.2,0,1,1-1.2-1.2A1.2,1.2,0,0,1,402.576,411.358Z" transform="translate(-353.339 -374.957)" fill="#fff"/>
      <path id="XMLID_5360_" d="M419.079,404.8a1.2,1.2,0,1,1-1.2-1.2A1.2,1.2,0,0,1,419.079,404.8Z" transform="translate(-365.495 -370.124)" fill="#fff"/>
      <path id="XMLID_5359_" d="M413.816,348.9a1.2,1.2,0,1,1-1.2-1.2A1.2,1.2,0,0,1,413.816,348.9Z" transform="translate(-361.62 -328.943)" fill="#fff"/>
      <path id="XMLID_5358_" d="M559.489,378.381a1.2,1.2,0,1,1-1.2-1.2A1.2,1.2,0,0,1,559.489,378.381Z" transform="translate(-468.935 -350.661)" fill="#fff"/>
      <path id="XMLID_5357_" d="M562.7,415.8a1.2,1.2,0,1,1-1.2-1.2A1.2,1.2,0,0,1,562.7,415.8Z" transform="translate(-471.3 -378.228)" fill="#fff"/>
      <path id="XMLID_5356_" d="M628.116,428.2a1.2,1.2,0,1,1-1.2-1.2A1.2,1.2,0,0,1,628.116,428.2Z" transform="translate(-519.495 -387.363)" fill="#fff"/>
      <path id="XMLID_5355_" d="M675.336,362.571a1.2,1.2,0,1,1-1.2-1.2A1.2,1.2,0,0,1,675.336,362.571Z" transform="translate(-554.282 -339.013)" fill="#fff"/>
      <path id="XMLID_5354_" d="M671.956,337.618a1.2,1.2,0,1,1-1.2-1.2A1.2,1.2,0,0,1,671.956,337.618Z" transform="translate(-551.792 -320.633)" fill="#fff"/>
      <path id="XMLID_5353_" d="M629.149,318.788a1.2,1.2,0,1,1-1.2-1.2A1.2,1.2,0,0,1,629.149,318.788Z" transform="translate(-520.254 -306.761)" fill="#fff"/>
      <path id="XMLID_5352_" d="M549.829,310.518a1.2,1.2,0,1,1-1.2-1.2A1.2,1.2,0,0,1,549.829,310.518Z" transform="translate(-461.819 -300.668)" fill="#fff"/>
      <path id="XMLID_5351_" d="M372.339,313.378a1.2,1.2,0,1,1-1.2-1.2A1.2,1.2,0,0,1,372.339,313.378Z" transform="translate(-331.061 -302.775)" fill="#fff"/>
      <path id="XMLID_5350_" d="M310.429,361.741a1.2,1.2,0,1,1-1.2-1.2A1.2,1.2,0,0,1,310.429,361.741Z" transform="translate(-285.452 -338.402)" fill="#fff"/>
      <path id="XMLID_5349_" d="M224.729,323.758a1.2,1.2,0,1,1-1.2-1.2A1.2,1.2,0,0,1,224.729,323.758Z" transform="translate(-222.317 -310.422)" fill="#fff"/>
      <path id="XMLID_5348_" d="M262.98,662.976a2.156,2.156,0,1,1,2.164,2.159A2.156,2.156,0,0,1,262.98,662.976Z" transform="translate(-252.264 -559.619)" fill="#fff"/>
      <path id="XMLID_5347_" d="M297.96,621.476a2.158,2.158,0,1,1,2.167,2.159A2.156,2.156,0,0,1,297.96,621.476Z" transform="translate(-278.034 -529.046)" fill="#fff"/>
      <path id="XMLID_5346_" d="M330.42,649.256a2.158,2.158,0,1,1,2.167,2.159A2.156,2.156,0,0,1,330.42,649.256Z" transform="translate(-301.947 -549.511)" fill="#fff"/>
      <path id="XMLID_5345_" d="M273.06,722.866a2.158,2.158,0,1,1,2.167,2.159A2.158,2.158,0,0,1,273.06,722.866Z" transform="translate(-259.69 -603.74)" fill="#fff"/>
      <path id="XMLID_5344_" d="M416.91,621.476a2.158,2.158,0,1,1,2.164,2.159A2.156,2.156,0,0,1,416.91,621.476Z" transform="translate(-365.664 -529.046)" fill="#fff"/>
      <path id="XMLID_5343_" d="M452.07,650.044a2.158,2.158,0,1,1,2.164,2.159A2.154,2.154,0,0,1,452.07,650.044Z" transform="translate(-391.567 -550.093)" fill="#fff"/>
      <path id="XMLID_5342_" d="M471.26,630.106a2.158,2.158,0,1,1,2.167,2.159A2.158,2.158,0,0,1,471.26,630.106Z" transform="translate(-405.704 -535.403)" fill="#fff"/>
      <path id="XMLID_5341_" d="M556.98,671.646a2.156,2.156,0,1,1,2.164,2.159A2.156,2.156,0,0,1,556.98,671.646Z" transform="translate(-468.854 -566.006)" fill="#fff"/>
      <path id="XMLID_5340_" d="M578.01,709.784a2.158,2.158,0,1,1,2.164,2.162A2.155,2.155,0,0,1,578.01,709.784Z" transform="translate(-484.347 -594.104)" fill="#fff"/>
      <path id="XMLID_5339_" d="M554.91,773.246a2.158,2.158,0,1,1,2.167,2.159A2.158,2.158,0,0,1,554.91,773.246Z" transform="translate(-467.329 -640.855)" fill="#fff"/>
      <path id="XMLID_5338_" d="M335.66,564.126a2.158,2.158,0,1,1,2.167,2.159A2.156,2.156,0,0,1,335.66,564.126Z" transform="translate(-305.807 -486.796)" fill="#fff"/>
      <path id="XMLID_5337_" d="M385.36,595.706a2.156,2.156,0,1,1,2.164,2.159A2.156,2.156,0,0,1,385.36,595.706Z" transform="translate(-342.421 -510.061)" fill="#fff"/>
      <path id="XMLID_5336_" d="M375.05,562.594a2.158,2.158,0,1,1,2.164,2.159A2.154,2.154,0,0,1,375.05,562.594Z" transform="translate(-334.826 -485.669)" fill="#fff"/>
      <path id="XMLID_5335_" d="M428.48,559.646a2.156,2.156,0,1,1,2.164,2.159A2.156,2.156,0,0,1,428.48,559.646Z" transform="translate(-374.188 -483.495)" fill="#fff"/>
      <path id="XMLID_5334_" d="M474.8,545.166a2.158,2.158,0,1,1,2.164,2.159A2.158,2.158,0,0,1,474.8,545.166Z" transform="translate(-408.312 -472.828)" fill="#fff"/>
      <path id="XMLID_5333_" d="M573.97,572.546a2.158,2.158,0,1,1,2.164,2.159A2.156,2.156,0,0,1,573.97,572.546Z" transform="translate(-481.371 -492.999)" fill="#fff"/>
      <path id="XMLID_5332_" d="M574.7,504.146a2.156,2.156,0,1,1,2.164,2.159A2.156,2.156,0,0,1,574.7,504.146Z" transform="translate(-481.908 -442.608)" fill="#fff"/>
      <path id="XMLID_5331_" d="M535.25,505.336a2.156,2.156,0,1,1,2.164,2.159A2.156,2.156,0,0,1,535.25,505.336Z" transform="translate(-452.846 -443.485)" fill="#fff"/>
      <path id="XMLID_5330_" d="M336.49,495.366a2.156,2.156,0,1,1,2.164,2.159A2.156,2.156,0,0,1,336.49,495.366Z" transform="translate(-306.419 -436.14)" fill="#fff"/>
      <path id="XMLID_5329_" d="M309.93,459.226a2.156,2.156,0,1,1,2.164,2.159A2.156,2.156,0,0,1,309.93,459.226Z" transform="translate(-286.852 -409.516)" fill="#fff"/>
      <path id="XMLID_5328_" d="M284.56,395.346a2.156,2.156,0,1,1,2.164,2.159A2.158,2.158,0,0,1,284.56,395.346Z" transform="translate(-268.162 -362.455)" fill="#fff"/>
      <path id="XMLID_5327_" d="M353.47,396.266a2.156,2.156,0,1,1,2.164,2.159A2.156,2.156,0,0,1,353.47,396.266Z" transform="translate(-318.928 -363.133)" fill="#fff"/>
      <path id="XMLID_5326_" d="M332.43,358.146a2.158,2.158,0,1,1,2.167,2.159A2.156,2.156,0,0,1,332.43,358.146Z" transform="translate(-303.428 -335.05)" fill="#fff"/>
      <path id="XMLID_5325_" d="M355.53,294.676a2.156,2.156,0,1,1,2.164,2.159A2.156,2.156,0,0,1,355.53,294.676Z" transform="translate(-320.446 -288.291)" fill="#fff"/>
      <path id="XMLID_5324_" d="M458.38,417.884a2.156,2.156,0,1,1,2.164,2.159A2.154,2.154,0,0,1,458.38,417.884Z" transform="translate(-396.215 -379.06)" fill="#fff"/>
      <path id="XMLID_5323_" d="M439.18,437.806a2.156,2.156,0,1,1,2.164,2.159A2.156,2.156,0,0,1,439.18,437.806Z" transform="translate(-382.071 -393.736)" fill="#fff"/>
      <path id="XMLID_5322_" d="M493.53,446.456a2.158,2.158,0,1,1,2.167,2.159A2.156,2.156,0,0,1,493.53,446.456Z" transform="translate(-422.11 -400.108)" fill="#fff"/>
      <path id="XMLID_5321_" d="M525.08,472.214a2.156,2.156,0,1,1,2.164,2.159A2.154,2.154,0,0,1,525.08,472.214Z" transform="translate(-445.353 -419.085)" fill="#fff"/>
      <path id="XMLID_5320_" d="M580.15,418.666a2.158,2.158,0,1,1,2.164,2.159A2.158,2.158,0,0,1,580.15,418.666Z" transform="translate(-485.923 -379.635)" fill="#fff"/>
      <path id="XMLID_5319_" d="M612.48,446.456a2.156,2.156,0,1,1,2.164,2.159A2.156,2.156,0,0,1,612.48,446.456Z" transform="translate(-509.741 -400.108)" fill="#fff"/>
      <path id="XMLID_5318_" d="M647.45,404.926a2.158,2.158,0,1,1,2.167,2.159A2.158,2.158,0,0,1,647.45,404.926Z" transform="translate(-535.504 -369.513)" fill="#fff"/>
      <path id="XMLID_5317_" d="M637.42,345.054a2.156,2.156,0,1,1,2.164,2.159A2.155,2.155,0,0,1,637.42,345.054Z" transform="translate(-528.114 -325.406)" fill="#fff"/>
      <path id="XMLID_5316_" d="M600.52,608.694a2.156,2.156,0,1,1,2.164,2.159A2.155,2.155,0,0,1,600.52,608.694Z" transform="translate(-500.93 -519.63)" fill="#fff"/>
      <path id="XMLID_5315_" d="M625.9,672.574a2.156,2.156,0,1,1,2.164,2.159A2.154,2.154,0,0,1,625.9,672.574Z" transform="translate(-519.628 -566.691)" fill="#fff"/>
      <path id="XMLID_5314_" d="M481.97,508.266a2.156,2.156,0,1,1,2.164,2.159A2.156,2.156,0,0,1,481.97,508.266Z" transform="translate(-413.594 -445.644)" fill="#fff"/>
      <path id="XMLID_5313_" d="M528.9,551.766a2.156,2.156,0,1,1,2.164,2.159A2.157,2.157,0,0,1,528.9,551.766Z" transform="translate(-448.168 -477.69)" fill="#fff"/>
      <path id="XMLID_5312_" d="M381.55,516.156a2.158,2.158,0,1,1,2.167,2.159A2.158,2.158,0,0,1,381.55,516.156Z" transform="translate(-339.615 -451.456)" fill="#fff"/>
      <path id="XMLID_5311_" d="M368.663,726.278a3.836,3.836,0,1,1-3.834-3.828A3.836,3.836,0,0,1,368.663,726.278Z" transform="translate(-324.468 -605.022)" fill="#fff"/>
      <path id="XMLID_5310_" d="M530.193,678.328a3.836,3.836,0,1,1-3.834-3.828A3.836,3.836,0,0,1,530.193,678.328Z" transform="translate(-443.467 -569.697)" fill="#fff"/>
      <path id="XMLID_5309_" d="M602.982,741.8a3.836,3.836,0,1,1-3.834-3.828A3.838,3.838,0,0,1,602.982,741.8Z" transform="translate(-497.092 -616.455)" fill="#fff"/>
      <path id="XMLID_5308_" d="M484.28,582.678a3.835,3.835,0,1,1-3.834-3.828A3.836,3.836,0,0,1,484.28,582.678Z" transform="translate(-409.645 -499.231)" fill="#fff"/>
      <path id="XMLID_5307_" d="M533.97,575.308a3.835,3.835,0,1,1-3.834-3.828A3.836,3.836,0,0,1,533.97,575.308Z" transform="translate(-446.252 -493.802)" fill="#fff"/>
      <path id="XMLID_5306_" d="M505.873,551.578a3.836,3.836,0,1,1-3.834-3.828A3.837,3.837,0,0,1,505.873,551.578Z" transform="translate(-425.551 -476.32)" fill="#fff"/>
      <path id="XMLID_5305_" d="M565.19,450.738a3.835,3.835,0,1,1-3.834-3.828A3.836,3.836,0,0,1,565.19,450.738Z" transform="translate(-469.252 -402.031)" fill="#fff"/>
      <path id="XMLID_5304_" d="M382.86,380.188a3.835,3.835,0,1,1-3.834-3.828A3.836,3.836,0,0,1,382.86,380.188Z" transform="translate(-334.929 -350.056)" fill="#fff"/>
      <path id="XMLID_5303_" d="M310.06,316.738a3.835,3.835,0,1,1-3.834-3.828A3.834,3.834,0,0,1,310.06,316.738Z" transform="translate(-281.297 -303.313)" fill="#fff"/>
      <path id="XMLID_5302_" d="M544.76,332a3.835,3.835,0,1,1-3.834-3.828A3.836,3.836,0,0,1,544.76,332Z" transform="translate(-454.201 -314.555)" fill="#fff"/>
      <path id="XMLID_5301_" d="M455.19,500.638a3.835,3.835,0,1,1-3.834-3.828A3.837,3.837,0,0,1,455.19,500.638Z" transform="translate(-388.215 -438.792)" fill="#fff"/>
      <path id="XMLID_5300_" d="M426.66,475.3a3.835,3.835,0,1,1-3.834-3.828A3.837,3.837,0,0,1,426.66,475.3Z" transform="translate(-367.197 -420.124)" fill="#fff"/>
      <path id="XMLID_5299_" d="M407.17,506.958a3.835,3.835,0,1,1-3.834-3.828A3.836,3.836,0,0,1,407.17,506.958Z" transform="translate(-352.838 -443.448)" fill="#fff"/>
      <path id="XMLID_5298_" d="M379.073,483.228a3.836,3.836,0,1,1-3.834-3.828A3.837,3.837,0,0,1,379.073,483.228Z" transform="translate(-332.137 -425.966)" fill="#fff"/>
      <path id="XMLID_5297_" d="M426.66,581.8a3.835,3.835,0,1,1-3.834-3.828A3.836,3.836,0,0,1,426.66,581.8Z" transform="translate(-367.197 -498.583)" fill="#fff"/>
      <path id="XMLID_5296_" d="M347.87,607.778a3.835,3.835,0,1,1-3.834-3.828A3.834,3.834,0,0,1,347.87,607.778Z" transform="translate(-309.152 -517.722)" fill="#fff"/>
      <path id="XMLID_5295_" d="M482.813,675.028a2.877,2.877,0,1,1-2.873-2.878A2.875,2.875,0,0,1,482.813,675.028Z" transform="translate(-409.977 -567.966)" fill="#fff"/>
      <path id="XMLID_5294_" d="M502.513,642.558a2.877,2.877,0,1,1-2.873-2.878A2.877,2.877,0,0,1,502.513,642.558Z" transform="translate(-424.49 -544.045)" fill="#fff"/>
      <path id="XMLID_5293_" d="M570.123,596.768a2.877,2.877,0,1,1-2.873-2.878A2.873,2.873,0,0,1,570.123,596.768Z" transform="translate(-474.298 -510.311)" fill="#fff"/>
      <path id="XMLID_5292_" d="M365.733,582.008a2.877,2.877,0,1,1-2.873-2.878A2.875,2.875,0,0,1,365.733,582.008Z" transform="translate(-323.724 -499.438)" fill="#fff"/>
      <path id="XMLID_5291_" d="M447.313,613.778a2.877,2.877,0,1,1-2.873-2.878A2.875,2.875,0,0,1,447.313,613.778Z" transform="translate(-383.824 -522.843)" fill="#fff"/>
      <path id="XMLID_5290_" d="M456.913,574.768a2.877,2.877,0,1,1-2.873-2.878A2.875,2.875,0,0,1,456.913,574.768Z" transform="translate(-390.896 -494.104)" fill="#fff"/>
      <path id="XMLID_5289_" d="M455.09,538.218a2.875,2.875,0,1,1-2.87-2.878A2.873,2.873,0,0,1,455.09,538.218Z" transform="translate(-389.556 -467.177)" fill="#fff"/>
      <path id="XMLID_5288_" d="M558.933,526.2a2.877,2.877,0,1,1-2.873-2.878A2.875,2.875,0,0,1,558.933,526.2Z" transform="translate(-466.055 -458.322)" fill="#fff"/>
      <path id="XMLID_5287_" d="M550.743,481.908a2.877,2.877,0,1,1-2.873-2.878A2.873,2.873,0,0,1,550.743,481.908Z" transform="translate(-460.021 -425.694)" fill="#fff"/>
      <path id="XMLID_5286_" d="M413.993,421.338a2.877,2.877,0,1,1-2.873-2.878A2.875,2.875,0,0,1,413.993,421.338Z" transform="translate(-359.277 -381.072)" fill="#fff"/>
      <path id="XMLID_5285_" d="M433.673,388.878A2.877,2.877,0,1,1,430.8,386,2.877,2.877,0,0,1,433.673,388.878Z" transform="translate(-373.775 -357.158)" fill="#fff"/>
      <path id="XMLID_5284_" d="M577.013,387.558a2.877,2.877,0,1,1-2.873-2.878A2.875,2.875,0,0,1,577.013,387.558Z" transform="translate(-479.374 -356.186)" fill="#fff"/>
      <path id="XMLID_5283_" d="M490.853,472.868a2.877,2.877,0,1,1-2.873-2.878A2.875,2.875,0,0,1,490.853,472.868Z" transform="translate(-415.9 -419.034)" fill="#fff"/>
      <path id="XMLID_5282_" d="M346.363,467.148a2.877,2.877,0,1,1-2.873-2.878A2.875,2.875,0,0,1,346.363,467.148Z" transform="translate(-309.454 -414.82)" fill="#fff"/>
      <path id="XMLID_5281_" d="M357.563,537.728a2.877,2.877,0,1,1-2.873-2.878A2.873,2.873,0,0,1,357.563,537.728Z" transform="translate(-317.705 -466.816)" fill="#fff"/>
      <path id="XMLID_5280_" d="M339.483,676.338a2.877,2.877,0,1,1-2.873-2.878A2.877,2.877,0,0,1,339.483,676.338Z" transform="translate(-304.385 -568.931)" fill="#fff"/>
      <path id="XMLID_5279_" d="M335.142,768.773a1.606,1.606,0,1,1-1.609-1.6A1.6,1.6,0,0,1,335.142,768.773Z" transform="translate(-303.059 -637.967)" fill="#fff"/>
      <path id="XMLID_5278_" d="M314.042,733.123a1.606,1.606,0,1,1-1.609-1.6A1.6,1.6,0,0,1,314.042,733.123Z" transform="translate(-287.515 -611.704)" fill="#fff"/>
      <path id="XMLID_5277_" d="M259.482,764.683a1.606,1.606,0,1,1-1.609-1.6A1.6,1.6,0,0,1,259.482,764.683Z" transform="translate(-247.321 -634.954)" fill="#fff"/>
      <path id="XMLID_5276_" d="M351.072,713.813a1.606,1.606,0,1,1-1.609-1.6A1.6,1.6,0,0,1,351.072,713.813Z" transform="translate(-314.795 -597.478)" fill="#fff"/>
      <path id="XMLID_5275_" d="M413.942,704.224a1.606,1.606,0,1,1-1.609-1.6A1.6,1.6,0,0,1,413.942,704.224Z" transform="translate(-361.111 -590.413)" fill="#fff"/>
      <path id="XMLID_5274_" d="M416.572,680.253a1.606,1.606,0,1,1-1.609-1.6A1.6,1.6,0,0,1,416.572,680.253Z" transform="translate(-363.049 -572.754)" fill="#fff"/>
      <path id="XMLID_5273_" d="M381.982,683.783a1.606,1.606,0,1,1-1.609-1.6A1.6,1.6,0,0,1,381.982,683.783Z" transform="translate(-337.566 -575.355)" fill="#fff"/>
      <path id="XMLID_5272_" d="M439.082,669.733a1.606,1.606,0,1,1-1.609-1.6A1.6,1.6,0,0,1,439.082,669.733Z" transform="translate(-379.632 -565.004)" fill="#fff"/>
      <path id="XMLID_5271_" d="M435.342,647.123a1.606,1.606,0,1,1-1.609-1.6A1.6,1.6,0,0,1,435.342,647.123Z" transform="translate(-376.877 -548.347)" fill="#fff"/>
      <path id="XMLID_5270_" d="M397.252,620.2a1.606,1.606,0,1,1-1.609-1.6A1.6,1.6,0,0,1,397.252,620.2Z" transform="translate(-348.816 -528.515)" fill="#fff"/>
      <path id="XMLID_5269_" d="M373.812,631.474a1.606,1.606,0,1,1-1.609-1.6A1.6,1.6,0,0,1,373.812,631.474Z" transform="translate(-331.548 -536.818)" fill="#fff"/>
      <path id="XMLID_5268_" d="M343.012,588.534a1.606,1.606,0,1,1-1.609-1.6A1.6,1.6,0,0,1,343.012,588.534Z" transform="translate(-308.857 -505.184)" fill="#fff"/>
      <path id="XMLID_5267_" d="M318.472,586.583a1.606,1.606,0,1,1-1.609-1.6A1.6,1.6,0,0,1,318.472,586.583Z" transform="translate(-290.779 -503.747)" fill="#fff"/>
      <path id="XMLID_5266_" d="M380.362,534.423a1.606,1.606,0,1,1-1.609-1.6A1.6,1.6,0,0,1,380.362,534.423Z" transform="translate(-336.373 -465.321)" fill="#fff"/>
      <path id="XMLID_5265_" d="M364.332,506.943a1.606,1.606,0,1,1-1.609-1.6A1.6,1.6,0,0,1,364.332,506.943Z" transform="translate(-324.564 -445.076)" fill="#fff"/>
      <path id="XMLID_5264_" d="M386.2,466a1.606,1.606,0,1,1-1.609-1.6A1.6,1.6,0,0,1,386.2,466Z" transform="translate(-340.675 -414.916)" fill="#fff"/>
      <path id="XMLID_5263_" d="M436.182,521.063a1.606,1.606,0,1,1-1.609-1.6A1.6,1.6,0,0,1,436.182,521.063Z" transform="translate(-377.496 -455.479)" fill="#fff"/>
      <path id="XMLID_5262_" d="M433.35,505.943a1.6,1.6,0,1,1-1.609-1.6A1.6,1.6,0,0,1,433.35,505.943Z" transform="translate(-375.411 -444.34)" fill="#fff"/>
      <path id="XMLID_5261_" d="M477.825,492.453a1.607,1.607,0,1,1-1.611-1.6A1.6,1.6,0,0,1,477.825,492.453Z" transform="translate(-408.172 -434.402)" fill="#fff"/>
      <path id="XMLID_5260_" d="M520.192,491.133a1.606,1.606,0,1,1-1.609-1.6A1.6,1.6,0,0,1,520.192,491.133Z" transform="translate(-439.386 -433.429)" fill="#fff"/>
      <path id="XMLID_5259_" d="M578.052,482.493a1.606,1.606,0,1,1-1.609-1.6A1.6,1.6,0,0,1,578.052,482.493Z" transform="translate(-482.012 -427.064)" fill="#fff"/>
      <path id="XMLID_5258_" d="M602.572,484.414a1.606,1.606,0,1,1-1.609-1.6A1.6,1.6,0,0,1,602.572,484.414Z" transform="translate(-500.076 -428.478)" fill="#fff"/>
      <path id="XMLID_5257_" d="M556.732,564.073a1.606,1.606,0,1,1-1.609-1.6A1.6,1.6,0,0,1,556.732,564.073Z" transform="translate(-466.305 -487.164)" fill="#fff"/>
      <path id="XMLID_5256_" d="M487.71,565.073a1.6,1.6,0,1,1-1.609-1.6A1.6,1.6,0,0,1,487.71,565.073Z" transform="translate(-415.458 -487.901)" fill="#fff"/>
      <path id="XMLID_5255_" d="M464.892,600.563a1.606,1.606,0,1,1-1.609-1.6A1.6,1.6,0,0,1,464.892,600.563Z" transform="translate(-398.646 -514.046)" fill="#fff"/>
      <path id="XMLID_5254_" d="M401.082,580.063a1.606,1.606,0,1,1-1.609-1.6A1.6,1.6,0,0,1,401.082,580.063Z" transform="translate(-351.637 -498.944)" fill="#fff"/>
      <path id="XMLID_5253_" d="M407.192,443.793a1.606,1.606,0,1,1-1.609-1.6A1.6,1.6,0,0,1,407.192,443.793Z" transform="translate(-356.139 -398.554)" fill="#fff"/>
      <path id="XMLID_5252_" d="M379.952,415.073a1.606,1.606,0,1,1-1.609-1.6A1.6,1.6,0,0,1,379.952,415.073Z" transform="translate(-336.071 -377.396)" fill="#fff"/>
      <path id="XMLID_5251_" d="M477.652,657.9a1.606,1.606,0,1,1-1.611-1.6A1.6,1.6,0,0,1,477.652,657.9Z" transform="translate(-408.047 -556.289)" fill="#fff"/>
      <path id="XMLID_5250_" d="M513.87,627.214a1.6,1.6,0,1,1-1.609-1.6A1.6,1.6,0,0,1,513.87,627.214Z" transform="translate(-434.73 -533.679)" fill="#fff"/>
      <path id="XMLID_5249_" d="M534.852,605.013a1.606,1.606,0,1,1-1.609-1.6A1.6,1.6,0,0,1,534.852,605.013Z" transform="translate(-450.186 -517.325)" fill="#fff"/>
      <path id="XMLID_5248_" d="M540.962,655.953a1.606,1.606,0,1,1-1.609-1.6A1.6,1.6,0,0,1,540.962,655.953Z" transform="translate(-454.687 -554.852)" fill="#fff"/>
      <path id="XMLID_5247_" d="M611.392,649.233a1.606,1.606,0,1,1-1.611-1.6A1.6,1.6,0,0,1,611.392,649.233Z" transform="translate(-506.573 -549.902)" fill="#fff"/>
      <path id="XMLID_5246_" d="M634.33,652.506a1.6,1.6,0,1,1-1.606-1.606A1.6,1.6,0,0,1,634.33,652.506Z" transform="translate(-523.473 -552.311)" fill="#fff"/>
      <path id="XMLID_5245_" d="M678.8,712.654a1.6,1.6,0,1,1-1.609-1.6A1.6,1.6,0,0,1,678.8,712.654Z" transform="translate(-556.234 -596.623)" fill="#fff"/>
      <path id="XMLID_5244_" d="M604.822,687.173a1.606,1.606,0,1,1-1.609-1.6A1.6,1.6,0,0,1,604.822,687.173Z" transform="translate(-501.733 -577.852)" fill="#fff"/>
      <path id="XMLID_5243_" d="M536.61,714.563a1.6,1.6,0,1,1-1.606-1.6A1.6,1.6,0,0,1,536.61,714.563Z" transform="translate(-451.483 -598.03)" fill="#fff"/>
      <path id="XMLID_5242_" d="M532.482,741.724a1.606,1.606,0,1,1-1.609-1.6A1.6,1.6,0,0,1,532.482,741.724Z" transform="translate(-448.44 -618.039)" fill="#fff"/>
      <path id="XMLID_5241_" d="M575.142,743.914a1.606,1.606,0,1,1-1.609-1.6A1.6,1.6,0,0,1,575.142,743.914Z" transform="translate(-479.868 -619.653)" fill="#fff"/>
      <path id="XMLID_5240_" d="M590.322,783.773a1.606,1.606,0,1,1-1.609-1.6A1.6,1.6,0,0,1,590.322,783.773Z" transform="translate(-491.051 -649.018)" fill="#fff"/>
      <path id="XMLID_5239_" d="M635.752,789.493a1.606,1.606,0,1,1-1.609-1.6A1.6,1.6,0,0,1,635.752,789.493Z" transform="translate(-524.519 -653.231)" fill="#fff"/>
      <path id="XMLID_5238_" d="M523.812,450.813a1.606,1.606,0,1,1-1.609-1.6A1.6,1.6,0,0,1,523.812,450.813Z" transform="translate(-442.053 -403.725)" fill="#fff"/>
      <path id="XMLID_5237_" d="M547.245,439.563a1.607,1.607,0,1,1-1.611-1.6A1.6,1.6,0,0,1,547.245,439.563Z" transform="translate(-459.314 -395.437)" fill="#fff"/>
      <path id="XMLID_5236_" d="M481.972,401.263a1.606,1.606,0,1,1-1.609-1.6A1.6,1.6,0,0,1,481.972,401.263Z" transform="translate(-411.229 -367.222)" fill="#fff"/>
      <path id="XMLID_5235_" d="M485.712,423.9a1.606,1.606,0,1,1-1.609-1.6A1.6,1.6,0,0,1,485.712,423.9Z" transform="translate(-413.985 -383.901)" fill="#fff"/>
      <path id="XMLID_5234_" d="M504.472,390.743a1.606,1.606,0,1,1-1.609-1.6A1.6,1.6,0,0,1,504.472,390.743Z" transform="translate(-427.805 -359.472)" fill="#fff"/>
      <path id="XMLID_5233_" d="M539.072,387.223a1.606,1.606,0,1,1-1.609-1.6A1.6,1.6,0,0,1,539.072,387.223Z" transform="translate(-453.295 -356.878)" fill="#fff"/>
      <path id="XMLID_5232_" d="M507.1,366.784a1.606,1.606,0,1,1-1.609-1.6A1.6,1.6,0,0,1,507.1,366.784Z" transform="translate(-429.743 -341.82)" fill="#fff"/>
      <path id="XMLID_5231_" d="M569.975,357.214a1.607,1.607,0,1,1-1.611-1.6A1.6,1.6,0,0,1,569.975,357.214Z" transform="translate(-476.059 -334.77)" fill="#fff"/>
      <path id="XMLID_5230_" d="M607.012,337.893a1.606,1.606,0,1,1-1.609-1.6A1.6,1.6,0,0,1,607.012,337.893Z" transform="translate(-503.346 -320.537)" fill="#fff"/>
      <path id="XMLID_5229_" d="M661.572,306.333a1.606,1.606,0,1,1-1.609-1.6A1.6,1.6,0,0,1,661.572,306.333Z" transform="translate(-543.541 -297.287)" fill="#fff"/>
      <path id="XMLID_5228_" d="M585.912,302.233a1.606,1.606,0,1,1-1.609-1.6A1.6,1.6,0,0,1,585.912,302.233Z" transform="translate(-487.802 -294.266)" fill="#fff"/>
      <path id="XMLID_5227_" d="M388.582,329.263a1.606,1.606,0,1,1-1.609-1.6A1.6,1.6,0,0,1,388.582,329.263Z" transform="translate(-342.429 -314.179)" fill="#fff"/>
      <path id="XMLID_5226_" d="M384.452,356.453a1.606,1.606,0,1,1-1.609-1.6A1.6,1.6,0,0,1,384.452,356.453Z" transform="translate(-339.386 -334.21)" fill="#fff"/>
      <path id="XMLID_5225_" d="M285.3,281.573a1.606,1.606,0,1,1-1.609-1.6A1.6,1.6,0,0,1,285.3,281.573Z" transform="translate(-266.342 -279.046)" fill="#fff"/>
      <path id="XMLID_5224_" d="M330.752,287.214a1.606,1.606,0,1,1-1.609-1.6A1.6,1.6,0,0,1,330.752,287.214Z" transform="translate(-299.825 -283.201)" fill="#fff"/>
      <path id="XMLID_5223_" d="M242.262,358.354a1.606,1.606,0,1,1-1.609-1.6A1.6,1.6,0,0,1,242.262,358.354Z" transform="translate(-234.634 -335.61)" fill="#fff"/>
      <path id="XMLID_5222_" d="M316.232,383.833a1.606,1.606,0,1,1-1.609-1.6A1.6,1.6,0,0,1,316.232,383.833Z" transform="translate(-289.128 -354.381)" fill="#fff"/>
      <path id="XMLID_5221_" d="M286.722,418.5a1.606,1.606,0,1,1-1.609-1.6A1.6,1.6,0,0,1,286.722,418.5Z" transform="translate(-267.388 -379.922)" fill="#fff"/>
      <path id="XMLID_5220_" d="M309.672,421.793a1.606,1.606,0,1,1-1.609-1.6A1.6,1.6,0,0,1,309.672,421.793Z" transform="translate(-284.296 -382.346)" fill="#fff"/>
      <path id="XMLID_5219_" d="M443.4,413.133a1.606,1.606,0,1,1-1.609-1.6A1.6,1.6,0,0,1,443.4,413.133Z" transform="translate(-382.815 -375.966)" fill="#fff"/>
      <path id="XMLID_5218_" d="M345.912,327.1a1.606,1.606,0,1,1-1.609-1.6A1.6,1.6,0,0,1,345.912,327.1Z" transform="translate(-310.994 -312.588)" fill="#fff"/>
      <path id="XMLID_5217_" d="M597.128,657.367a.479.479,0,1,1-.958,0,.479.479,0,0,1,.958,0Z" transform="translate(-497.725 -556.724)" fill="#fff"/>
      <path id="XMLID_5216_" d="M539.768,624.019a.479.479,0,1,1-.958,0,.479.479,0,0,1,.958,0Z" transform="translate(-455.468 -532.154)" fill="#fff"/>
      <path id="XMLID_5215_" d="M529.651,647.087a.481.481,0,1,1-.961,0,.481.481,0,0,1,.961,0Z" transform="translate(-448.013 -549.15)" fill="#fff"/>
      <path id="XMLID_5214_" d="M496.868,627.459a.479.479,0,1,1-.958,0,.479.479,0,1,1,.958,0Z" transform="translate(-423.864 -534.689)" fill="#fff"/>
      <path id="XMLID_5213_" d="M473.948,613.177a.479.479,0,1,1-.958,0,.479.479,0,0,1,.958,0Z" transform="translate(-406.979 -524.169)" fill="#fff"/>
      <path id="XMLID_5212_" d="M468.181,622.419a.481.481,0,0,1-.961,0,.481.481,0,0,1,.961,0Z" transform="translate(-402.728 -530.976)" fill="#fff"/>
      <path id="XMLID_5211_" d="M466.578,670.1a.479.479,0,1,1-.958,0,.479.479,0,0,1,.477-.479A.485.485,0,0,1,466.578,670.1Z" transform="translate(-401.549 -566.102)" fill="#fff"/>
      <path id="XMLID_5210_" d="M485.138,700.589a.479.479,0,1,1-.958,0,.479.479,0,1,1,.958,0Z" transform="translate(-415.222 -588.564)" fill="#fff"/>
      <path id="XMLID_5209_" d="M470.938,729.457a.479.479,0,1,1-.958,0,.479.479,0,0,1,.958,0Z" transform="translate(-404.761 -609.832)" fill="#fff"/>
      <path id="XMLID_5208_" d="M432.981,693.257a.481.481,0,1,1-.961,0,.481.481,0,0,1,.961,0Z" transform="translate(-376.796 -583.164)" fill="#fff"/>
      <path id="XMLID_5207_" d="M410.8,725.4a.481.481,0,1,1-.961,0,.481.481,0,0,1,.961,0Z" transform="translate(-360.456 -606.841)" fill="#fff"/>
      <path id="XMLID_5206_" d="M377.431,665.739a.481.481,0,1,1-.961,0,.481.481,0,0,1,.961,0Z" transform="translate(-335.872 -562.89)" fill="#fff"/>
      <path id="XMLID_5205_" d="M365.218,650.759a.479.479,0,1,1-.958,0,.479.479,0,0,1,.958,0Z" transform="translate(-326.877 -551.854)" fill="#fff"/>
      <path id="XMLID_5204_" d="M445.648,641.777a.479.479,0,1,1-.958,0,.479.479,0,0,1,.958,0Z" transform="translate(-386.13 -545.238)" fill="#fff"/>
      <path id="XMLID_5203_" d="M325.611,675.627a.481.481,0,1,1-.961,0,.481.481,0,0,1,.961,0Z" transform="translate(-297.696 -570.176)" fill="#fff"/>
      <path id="XMLID_5202_" d="M338.108,627.509a.479.479,0,1,1-.958,0,.479.479,0,0,1,.479-.479A.484.484,0,0,1,338.108,627.509Z" transform="translate(-306.905 -534.726)" fill="#fff"/>
      <path id="XMLID_5201_" d="M336.111,604.539a.481.481,0,1,1-.482-.479A.485.485,0,0,1,336.111,604.539Z" transform="translate(-305.432 -517.804)" fill="#fff"/>
      <path id="XMLID_5200_" d="M318.448,605.717a.479.479,0,1,1-.958,0,.479.479,0,0,1,.958,0Z" transform="translate(-292.421 -518.673)" fill="#fff"/>
      <path id="XMLID_5199_" d="M329.488,577.789a.479.479,0,1,1-.958,0,.479.479,0,0,1,.958,0Z" transform="translate(-300.555 -498.097)" fill="#fff"/>
      <path id="XMLID_5198_" d="M368.148,573.7a.479.479,0,1,1-.958,0,.479.479,0,1,1,.958,0Z" transform="translate(-329.035 -495.084)" fill="#fff"/>
      <path id="XMLID_5197_" d="M347.381,552.407a.481.481,0,1,1-.961,0,.481.481,0,0,1,.961,0Z" transform="translate(-313.734 -479.399)" fill="#fff"/>
      <path id="XMLID_5196_" d="M396.071,531.679a.481.481,0,1,1-.961,0,.481.481,0,0,1,.961,0Z" transform="translate(-349.604 -464.127)" fill="#fff"/>
      <path id="XMLID_5195_" d="M396.768,570.239a.479.479,0,1,1-.958,0,.479.479,0,0,1,.958,0Z" transform="translate(-350.12 -492.535)" fill="#fff"/>
      <path id="XMLID_5194_" d="M421.951,571.227a.481.481,0,1,1-.961,0,.481.481,0,0,1,.961,0Z" transform="translate(-368.67 -493.264)" fill="#fff"/>
      <path id="XMLID_5193_" d="M446.908,575.769a.479.479,0,1,1-.958,0,.479.479,0,0,1,.958,0Z" transform="translate(-387.058 -496.609)" fill="#fff"/>
      <path id="XMLID_5192_" d="M454.171,567.029a.481.481,0,1,1-.482-.479A.486.486,0,0,1,454.171,567.029Z" transform="translate(-392.407 -490.17)" fill="#fff"/>
      <path id="XMLID_5191_" d="M445.648,554.759a.479.479,0,1,1-.958,0,.479.479,0,0,1,.958,0Z" transform="translate(-386.13 -481.13)" fill="#fff"/>
      <path id="XMLID_5190_" d="M431.288,550.677a.479.479,0,1,1-.958,0,.479.479,0,0,1,.958,0Z" transform="translate(-375.551 -478.125)" fill="#fff"/>
      <path id="XMLID_5189_" d="M428.231,537.069a.481.481,0,1,1-.961,0,.481.481,0,0,1,.961,0Z" transform="translate(-373.297 -468.098)" fill="#fff"/>
      <path id="XMLID_5188_" d="M449.458,530.289a.479.479,0,1,1-.958,0,.479.479,0,0,1,.958,0Z" transform="translate(-388.937 -463.103)" fill="#fff"/>
      <path id="XMLID_5187_" d="M460.088,528.369a.479.479,0,1,1-.479-.479A.483.483,0,0,1,460.088,528.369Z" transform="translate(-396.768 -461.689)" fill="#fff"/>
      <path id="XMLID_5186_" d="M477.991,522.557a.481.481,0,1,1-.961,0,.481.481,0,0,1,.961,0Z" transform="translate(-409.955 -457.409)" fill="#fff"/>
      <path id="XMLID_5185_" d="M506.431,579.047a.481.481,0,1,1-.961,0,.481.481,0,0,1,.961,0Z" transform="translate(-430.907 -499.025)" fill="#fff"/>
      <path id="XMLID_5184_" d="M520.511,575.889a.481.481,0,1,1-.961,0,.481.481,0,0,1,.961,0Z" transform="translate(-441.279 -496.697)" fill="#fff"/>
      <path id="XMLID_5183_" d="M544.881,567.929a.481.481,0,1,1-.961,0,.481.481,0,0,1,.961,0Z" transform="translate(-459.233 -490.833)" fill="#fff"/>
      <path id="XMLID_5182_" d="M558,580.859a.479.479,0,1,1-.958,0,.479.479,0,1,1,.958,0Z" transform="translate(-468.898 -500.358)" fill="#fff"/>
      <path id="XMLID_5181_" d="M577.721,524.907a.481.481,0,1,1-.961,0,.481.481,0,0,1,.961,0Z" transform="translate(-483.426 -459.14)" fill="#fff"/>
      <path id="XMLID_5180_" d="M556.968,503.609a.479.479,0,1,1-.482-.479A.485.485,0,0,1,556.968,503.609Z" transform="translate(-468.139 -443.448)" fill="#fff"/>
      <path id="XMLID_5179_" d="M528.348,507.069a.479.479,0,1,1-.958,0,.479.479,0,1,1,.958,0Z" transform="translate(-447.055 -445.997)" fill="#fff"/>
      <path id="XMLID_5178_" d="M503.141,506.1a.481.481,0,1,1-.482-.479A.485.485,0,0,1,503.141,506.1Z" transform="translate(-428.483 -445.283)" fill="#fff"/>
      <path id="XMLID_5177_" d="M495.158,497.8a.479.479,0,1,1-.958,0,.479.479,0,0,1,.958,0Z" transform="translate(-422.604 -439.168)" fill="#fff"/>
      <path id="XMLID_5176_" d="M454.168,487.567a.479.479,0,1,1-.958,0,.479.479,0,0,1,.958,0Z" transform="translate(-392.407 -431.632)" fill="#fff"/>
      <path id="XMLID_5175_" d="M418.688,498.269a.479.479,0,1,1-.479-.479A.484.484,0,0,1,418.688,498.269Z" transform="translate(-366.268 -439.514)" fill="#fff"/>
      <path id="XMLID_5174_" d="M404.581,501.419a.481.481,0,1,1-.961,0,.481.481,0,0,1,.961,0Z" transform="translate(-355.874 -441.835)" fill="#fff"/>
      <path id="XMLID_5173_" d="M380.221,509.389a.481.481,0,1,1-.961,0,.481.481,0,0,1,.961,0Z" transform="translate(-337.927 -447.706)" fill="#fff"/>
      <path id="XMLID_5172_" d="M367.108,496.439a.479.479,0,1,1-.958,0,.479.479,0,1,1,.958,0Z" transform="translate(-328.269 -438.166)" fill="#fff"/>
      <path id="XMLID_5171_" d="M385.338,453.287a.479.479,0,1,1-.958,0,.479.479,0,0,1,.958,0Z" transform="translate(-341.699 -406.377)" fill="#fff"/>
      <path id="XMLID_5170_" d="M428.231,449.857a.481.481,0,1,1-.961,0,.481.481,0,0,1,.961,0Z" transform="translate(-373.297 -403.85)" fill="#fff"/>
      <path id="XMLID_5169_" d="M395.468,430.239a.479.479,0,1,1-.958,0,.479.479,0,1,1,.958,0Z" transform="translate(-349.162 -389.396)" fill="#fff"/>
      <path id="XMLID_5168_" d="M327.981,419.957a.481.481,0,1,1-.961,0,.481.481,0,0,1,.961,0Z" transform="translate(-299.442 -381.823)" fill="#fff"/>
      <path id="XMLID_5167_" d="M316.288,437.349a.479.479,0,1,1-.958,0,.479.479,0,1,1,.958,0Z" transform="translate(-290.83 -394.634)" fill="#fff"/>
      <path id="XMLID_5166_" d="M439.961,376.717a.481.481,0,1,1-.961,0,.481.481,0,0,1,.961,0Z" transform="translate(-381.938 -349.968)" fill="#fff"/>
      <path id="XMLID_5165_" d="M458.538,407.2a.479.479,0,1,1-.958,0,.479.479,0,0,1,.958,0Z" transform="translate(-395.626 -372.423)" fill="#fff"/>
      <path id="XMLID_5164_" d="M492.108,384.067a.479.479,0,1,1-.958,0,.479.479,0,0,1,.958,0Z" transform="translate(-420.357 -355.383)" fill="#fff"/>
      <path id="XMLID_5163_" d="M514.308,351.929a.479.479,0,1,1-.958,0,.479.479,0,0,1,.477-.479A.485.485,0,0,1,514.308,351.929Z" transform="translate(-436.712 -331.705)" fill="#fff"/>
      <path id="XMLID_5162_" d="M454.178,347.849a.479.479,0,1,1-.479-.479A.485.485,0,0,1,454.178,347.849Z" transform="translate(-392.414 -328.7)" fill="#fff"/>
      <path id="XMLID_5161_" d="M496.868,436.069a.479.479,0,1,1-.958,0,.479.479,0,0,1,.958,0Z" transform="translate(-423.864 -393.691)" fill="#fff"/>
      <path id="XMLID_5160_" d="M547.658,411.549a.479.479,0,1,1-.958,0,.479.479,0,1,1,.958,0Z" transform="translate(-461.281 -375.627)" fill="#fff"/>
      <path id="XMLID_5159_" d="M559.9,426.559a.479.479,0,1,1-.958,0,.479.479,0,0,1,.958,0Z" transform="translate(-470.298 -386.685)" fill="#fff"/>
      <path id="XMLID_5158_" d="M587,449.807a.481.481,0,1,1-.961,0,.481.481,0,0,1,.961,0Z" transform="translate(-490.263 -403.814)" fill="#fff"/>
      <path id="XMLID_5157_" d="M606.668,471.6a.489.489,0,0,1-.482.482.481.481,0,1,1,.482-.482Z" transform="translate(-504.754 -419.866)" fill="#fff"/>
      <path id="XMLID_5156_" d="M588.988,472.609a.479.479,0,1,1-.958,0,.479.479,0,0,1,.958,0Z" transform="translate(-491.729 -420.61)" fill="#fff"/>
      <path id="XMLID_5155_" d="M595.618,499.517a.479.479,0,1,1-.958,0,.479.479,0,0,1,.958,0Z" transform="translate(-496.613 -440.435)" fill="#fff"/>
      <path id="XMLID_5154_" d="M599.488,401.689a.479.479,0,1,1-.479-.479A.484.484,0,0,1,599.488,401.689Z" transform="translate(-499.464 -368.364)" fill="#fff"/>
      <path id="XMLID_5153_" d="M608.808,639.939a.479.479,0,1,1-.958,0,.479.479,0,0,1,.958,0Z" transform="translate(-506.33 -543.883)" fill="#fff"/>
      <path id="XMLID_5152_" d="M683.065,780.759a.717.717,0,1,1-.716-.719A.719.719,0,0,1,683.065,780.759Z" transform="translate(-560.684 -647.448)" fill="#fff"/>
      <path id="XMLID_5151_" d="M645.638,758.829a.719.719,0,1,1-.716-.719A.721.721,0,0,1,645.638,758.829Z" transform="translate(-533.109 -631.292)" fill="#fff"/>
      <path id="XMLID_5150_" d="M566.878,798.8a.719.719,0,1,1-.716-.719A.717.717,0,0,1,566.878,798.8Z" transform="translate(-475.087 -660.738)" fill="#fff"/>
      <path id="XMLID_5149_" d="M660.068,671.309a.719.719,0,1,1-.716-.719A.72.72,0,0,1,660.068,671.309Z" transform="translate(-543.74 -566.816)" fill="#fff"/>
      <path id="XMLID_5148_" d="M571.008,698.5a.719.719,0,1,1-.716-.719A.717.717,0,0,1,571.008,698.5Z" transform="translate(-478.129 -586.847)" fill="#fff"/>
      <path id="XMLID_5147_" d="M563.888,722.749a.719.719,0,1,1-.719-.719A.719.719,0,0,1,563.888,722.749Z" transform="translate(-472.884 -604.712)" fill="#fff"/>
      <path id="XMLID_5146_" d="M517.138,759.319a.719.719,0,1,1-.716-.719A.719.719,0,0,1,517.138,759.319Z" transform="translate(-438.443 -631.653)" fill="#fff"/>
      <path id="XMLID_5145_" d="M519.5,705.729a.72.72,0,1,1-.719-.719A.724.724,0,0,1,519.5,705.729Z" transform="translate(-440.182 -592.174)" fill="#fff"/>
      <path id="XMLID_5144_" d="M506.568,687.949a.719.719,0,1,1-.719-.719A.718.718,0,0,1,506.568,687.949Z" transform="translate(-430.656 -579.075)" fill="#fff"/>
      <path id="XMLID_5143_" d="M503.258,709.909a.719.719,0,1,1-.716-.719A.717.717,0,0,1,503.258,709.909Z" transform="translate(-428.218 -595.253)" fill="#fff"/>
      <path id="XMLID_5142_" d="M558.168,655.529a.719.719,0,1,1-.716-.719A.717.717,0,0,1,558.168,655.529Z" transform="translate(-468.67 -555.191)" fill="#fff"/>
      <path id="XMLID_5141_" d="M550.068,620.439a.719.719,0,1,1-.719-.719A.718.718,0,0,1,550.068,620.439Z" transform="translate(-462.703 -529.34)" fill="#fff"/>
      <path id="XMLID_5140_" d="M591.278,605.569a.719.719,0,1,1-.716-.719A.721.721,0,0,1,591.278,605.569Z" transform="translate(-493.062 -518.386)" fill="#fff"/>
      <path id="XMLID_5139_" d="M594.488,589.309a.719.719,0,1,1-.716-.719A.717.717,0,0,1,594.488,589.309Z" transform="translate(-495.427 -506.407)" fill="#fff"/>
      <path id="XMLID_5138_" d="M627.178,603.919a.719.719,0,1,1-.716-.719A.717.717,0,0,1,627.178,603.919Z" transform="translate(-519.51 -517.17)" fill="#fff"/>
      <path id="XMLID_5137_" d="M549.978,555.4a.719.719,0,1,1-.716-.719A.717.717,0,0,1,549.978,555.4Z" transform="translate(-462.636 -481.425)" fill="#fff"/>
      <path id="XMLID_5136_" d="M537.28,539.589a.72.72,0,1,1-.719-.719A.72.72,0,0,1,537.28,539.589Z" transform="translate(-453.28 -469.778)" fill="#fff"/>
      <path id="XMLID_5135_" d="M546.688,525.139a.719.719,0,1,1-.719-.719A.718.718,0,0,1,546.688,525.139Z" transform="translate(-460.213 -459.133)" fill="#fff"/>
      <path id="XMLID_5134_" d="M563.31,553.589a.72.72,0,1,1-.716-.719A.719.719,0,0,1,563.31,553.589Z" transform="translate(-472.457 -480.092)" fill="#fff"/>
      <path id="XMLID_5133_" d="M520.838,596.609a.719.719,0,1,1-.716-.719A.717.717,0,0,1,520.838,596.609Z" transform="translate(-441.169 -511.785)" fill="#fff"/>
      <path id="XMLID_5132_" d="M522.458,613.859a.719.719,0,1,1-.716-.719A.717.717,0,0,1,522.458,613.859Z" transform="translate(-442.362 -524.493)" fill="#fff"/>
      <path id="XMLID_5131_" d="M493.818,611.829a.719.719,0,1,1-.716-.719A.717.717,0,0,1,493.818,611.829Z" transform="translate(-421.263 -522.997)" fill="#fff"/>
      <path id="XMLID_5130_" d="M483.568,619.169a.719.719,0,1,1-.716-.719A.719.719,0,0,1,483.568,619.169Z" transform="translate(-413.712 -528.405)" fill="#fff"/>
      <path id="XMLID_5129_" d="M491.42,636.359a.72.72,0,1,1-.719-.719A.72.72,0,0,1,491.42,636.359Z" transform="translate(-419.495 -541.069)" fill="#fff"/>
      <path id="XMLID_5128_" d="M484.385,648.2a.717.717,0,1,1-.716-.719A.717.717,0,0,1,484.385,648.2Z" transform="translate(-414.316 -549.791)" fill="#fff"/>
      <path id="XMLID_5127_" d="M463.918,640.579a.719.719,0,1,1-.716-.719A.717.717,0,0,1,463.918,640.579Z" transform="translate(-399.236 -544.177)" fill="#fff"/>
      <path id="XMLID_5126_" d="M438.008,633.739a.719.719,0,1,1-.716-.719A.718.718,0,0,1,438.008,633.739Z" transform="translate(-380.148 -539.138)" fill="#fff"/>
      <path id="XMLID_5125_" d="M433.5,613.649a.719.719,0,1,1-.716-.719A.719.719,0,0,1,433.5,613.649Z" transform="translate(-376.825 -524.338)" fill="#fff"/>
      <path id="XMLID_5124_" d="M452.238,598.029a.719.719,0,1,1-.716-.719A.719.719,0,0,1,452.238,598.029Z" transform="translate(-390.631 -512.831)" fill="#fff"/>
      <path id="XMLID_5123_" d="M463.918,563.679a.719.719,0,1,1-.716-.719A.718.718,0,0,1,463.918,563.679Z" transform="translate(-399.236 -487.525)" fill="#fff"/>
      <path id="XMLID_5122_" d="M476.748,570.469a.719.719,0,1,1-.716-.719A.719.719,0,0,1,476.748,570.469Z" transform="translate(-408.688 -492.527)" fill="#fff"/>
      <path id="XMLID_5121_" d="M497.528,542.269a.719.719,0,1,1-.716-.719A.717.717,0,0,1,497.528,542.269Z" transform="translate(-423.996 -471.752)" fill="#fff"/>
      <path id="XMLID_5120_" d="M474.278,534.349a.719.719,0,1,1-.716-.719A.719.719,0,0,1,474.278,534.349Z" transform="translate(-406.868 -465.918)" fill="#fff"/>
      <path id="XMLID_5119_" d="M510.828,499.479a.719.719,0,1,1-.716-.719A.719.719,0,0,1,510.828,499.479Z" transform="translate(-433.794 -440.229)" fill="#fff"/>
      <path id="XMLID_5118_" d="M537.5,495.459a.719.719,0,1,1-.716-.719A.717.717,0,0,1,537.5,495.459Z" transform="translate(-453.442 -437.267)" fill="#fff"/>
      <path id="XMLID_5117_" d="M570.578,518.309a.719.719,0,1,1-.719-.719A.72.72,0,0,1,570.578,518.309Z" transform="translate(-477.812 -454.101)" fill="#fff"/>
      <path id="XMLID_5116_" d="M551.488,471.859a.719.719,0,1,1-.716-.719A.717.717,0,0,1,551.488,471.859Z" transform="translate(-463.749 -419.881)" fill="#fff"/>
      <path id="XMLID_5115_" d="M547.738,457.149a.719.719,0,1,1-.716-.719A.717.717,0,0,1,547.738,457.149Z" transform="translate(-460.986 -409.044)" fill="#fff"/>
      <path id="XMLID_5114_" d="M537.28,463.209a.72.72,0,1,1-.719-.719A.72.72,0,0,1,537.28,463.209Z" transform="translate(-453.28 -413.509)" fill="#fff"/>
      <path id="XMLID_5113_" d="M516.318,480.779a.719.719,0,1,1-.716-.719A.717.717,0,0,1,516.318,480.779Z" transform="translate(-437.839 -426.452)" fill="#fff"/>
      <path id="XMLID_5112_" d="M488.178,459.769a.719.719,0,1,1-.716-.719A.717.717,0,0,1,488.178,459.769Z" transform="translate(-417.108 -410.974)" fill="#fff"/>
      <path id="XMLID_5111_" d="M466.6,487.329a.72.72,0,1,1-.716-.719A.719.719,0,0,1,466.6,487.329Z" transform="translate(-401.21 -431.278)" fill="#fff"/>
      <path id="XMLID_5110_" d="M440.688,456.809a.719.719,0,1,1-.716-.719A.717.717,0,0,1,440.688,456.809Z" transform="translate(-382.122 -408.794)" fill="#fff"/>
      <path id="XMLID_5109_" d="M430.428,464.159a.719.719,0,1,1-.716-.719A.717.717,0,0,1,430.428,464.159Z" transform="translate(-374.564 -414.208)" fill="#fff"/>
      <path id="XMLID_5108_" d="M432.82,439.609a.72.72,0,1,1-.719-.719A.72.72,0,0,1,432.82,439.609Z" transform="translate(-376.324 -396.122)" fill="#fff"/>
      <path id="XMLID_5107_" d="M439.868,427.789a.719.719,0,1,1-.716-.719A.717.717,0,0,1,439.868,427.789Z" transform="translate(-381.518 -387.415)" fill="#fff"/>
      <path id="XMLID_5106_" d="M460.328,435.4a.719.719,0,1,1-.716-.719A.717.717,0,0,1,460.328,435.4Z" transform="translate(-396.591 -393.021)" fill="#fff"/>
      <path id="XMLID_5105_" d="M486.238,442.229a.719.719,0,1,1-.716-.719A.717.717,0,0,1,486.238,442.229Z" transform="translate(-415.679 -398.053)" fill="#fff"/>
      <path id="XMLID_5104_" d="M493.87,408.649a.72.72,0,1,1-.716-.719A.719.719,0,0,1,493.87,408.649Z" transform="translate(-421.3 -373.314)" fill="#fff"/>
      <path id="XMLID_5103_" d="M544.818,424.769a.719.719,0,1,1-.716-.719A.717.717,0,0,1,544.818,424.769Z" transform="translate(-458.835 -385.19)" fill="#fff"/>
      <path id="XMLID_5102_" d="M571.088,433a.719.719,0,1,1-.716-.719A.717.717,0,0,1,571.088,433Z" transform="translate(-478.188 -391.253)" fill="#fff"/>
      <path id="XMLID_5101_" d="M599.718,457.669a.719.719,0,1,1-.716-.719A.717.717,0,0,1,599.718,457.669Z" transform="translate(-499.28 -409.427)" fill="#fff"/>
      <path id="XMLID_5100_" d="M604.338,439.419a.719.719,0,1,1-.716-.719A.717.717,0,0,1,604.338,439.419Z" transform="translate(-502.683 -395.982)" fill="#fff"/>
      <path id="XMLID_5099_" d="M609.468,419.889a.719.719,0,1,1-.716-.719A.717.717,0,0,1,609.468,419.889Z" transform="translate(-506.463 -381.595)" fill="#fff"/>
      <path id="XMLID_5098_" d="M627.988,414.529a.719.719,0,1,1-.716-.719A.719.719,0,0,1,627.988,414.529Z" transform="translate(-520.107 -377.646)" fill="#fff"/>
      <path id="XMLID_5097_" d="M646.008,429.289a.719.719,0,1,1-.716-.719A.717.717,0,0,1,646.008,429.289Z" transform="translate(-533.382 -388.52)" fill="#fff"/>
      <path id="XMLID_5096_" d="M641.59,454.519a.72.72,0,1,1-.719-.719A.72.72,0,0,1,641.59,454.519Z" transform="translate(-530.126 -407.107)" fill="#fff"/>
      <path id="XMLID_5095_" d="M652.5,377.489a.719.719,0,1,1-.716-.719A.717.717,0,0,1,652.5,377.489Z" transform="translate(-538.163 -350.359)" fill="#fff"/>
      <path id="XMLID_5094_" d="M700.53,332.159a.72.72,0,1,1-.716-.719A.717.717,0,0,1,700.53,332.159Z" transform="translate(-573.547 -316.964)" fill="#fff"/>
      <path id="XMLID_5093_" d="M612.36,353.459a.72.72,0,1,1-.719-.719A.72.72,0,0,1,612.36,353.459Z" transform="translate(-508.592 -332.656)" fill="#fff"/>
      <path id="XMLID_5092_" d="M592.538,368.689a.719.719,0,1,1-.716-.719A.717.717,0,0,1,592.538,368.689Z" transform="translate(-493.99 -343.876)" fill="#fff"/>
      <path id="XMLID_5091_" d="M584.368,330.589a.719.719,0,1,1-.716-.719A.719.719,0,0,1,584.368,330.589Z" transform="translate(-487.972 -315.807)" fill="#fff"/>
      <path id="XMLID_5090_" d="M618.468,284.059a.719.719,0,1,1-.716-.719A.717.717,0,0,1,618.468,284.059Z" transform="translate(-513.093 -281.528)" fill="#fff"/>
      <path id="XMLID_5089_" d="M557.778,279.869a.719.719,0,1,1-.716-.719A.717.717,0,0,1,557.778,279.869Z" transform="translate(-468.383 -278.442)" fill="#fff"/>
      <path id="XMLID_5088_" d="M521.288,328.959a.719.719,0,1,1-.716-.719A.719.719,0,0,1,521.288,328.959Z" transform="translate(-441.5 -314.606)" fill="#fff"/>
      <path id="XMLID_5087_" d="M541.618,368.859a.719.719,0,1,1-.716-.719A.717.717,0,0,1,541.618,368.859Z" transform="translate(-456.478 -344.001)" fill="#fff"/>
      <path id="XMLID_5086_" d="M526.61,376.519a.72.72,0,1,1-.716-.719A.717.717,0,0,1,526.61,376.519Z" transform="translate(-445.42 -349.644)" fill="#fff"/>
      <path id="XMLID_5085_" d="M484.5,364.779a.719.719,0,1,1-.716-.719A.717.717,0,0,1,484.5,364.779Z" transform="translate(-414.397 -340.995)" fill="#fff"/>
      <path id="XMLID_5084_" d="M421,366.069a.719.719,0,1,1-.719-.719A.72.72,0,0,1,421,366.069Z" transform="translate(-367.617 -341.945)" fill="#fff"/>
      <path id="XMLID_5083_" d="M407.118,316.659a.719.719,0,1,1-.716-.719A.717.717,0,0,1,407.118,316.659Z" transform="translate(-357.391 -305.545)" fill="#fff"/>
      <path id="XMLID_5082_" d="M404.748,370.239a.719.719,0,1,1-.716-.719A.717.717,0,0,1,404.748,370.239Z" transform="translate(-355.645 -345.017)" fill="#fff"/>
      <path id="XMLID_5081_" d="M417.678,388.039a.719.719,0,1,1-.716-.719A.717.717,0,0,1,417.678,388.039Z" transform="translate(-365.171 -358.131)" fill="#fff"/>
      <path id="XMLID_5080_" d="M360.378,353.219a.719.719,0,1,1-.716-.719A.717.717,0,0,1,360.378,353.219Z" transform="translate(-322.958 -332.479)" fill="#fff"/>
      <path id="XMLID_5079_" d="M353.22,377.479a.72.72,0,1,1-.719-.719A.72.72,0,0,1,353.22,377.479Z" transform="translate(-317.683 -350.351)" fill="#fff"/>
      <path id="XMLID_5078_" d="M357.35,277.179a.72.72,0,1,1-.719-.719A.72.72,0,0,1,357.35,277.179Z" transform="translate(-320.725 -276.46)" fill="#fff"/>
      <path id="XMLID_5077_" d="M248.778,295.029a.719.719,0,1,1-.716-.719A.717.717,0,0,1,248.778,295.029Z" transform="translate(-240.742 -289.61)" fill="#fff"/>
      <path id="XMLID_5076_" d="M278.618,317.169a.719.719,0,1,1-.716-.719A.717.717,0,0,1,278.618,317.169Z" transform="translate(-262.725 -305.921)" fill="#fff"/>
      <path id="XMLID_5075_" d="M264.178,404.659a.719.719,0,1,1-.716-.719A.719.719,0,0,1,264.178,404.659Z" transform="translate(-252.087 -370.375)" fill="#fff"/>
      <path id="XMLID_5074_" d="M366.078,420.439a.719.719,0,1,1-.716-.719A.719.719,0,0,1,366.078,420.439Z" transform="translate(-327.157 -382)" fill="#fff"/>
      <path id="XMLID_5073_" d="M374.2,455.539a.719.719,0,1,1-.716-.719A.718.718,0,0,1,374.2,455.539Z" transform="translate(-333.139 -407.858)" fill="#fff"/>
      <path id="XMLID_5072_" d="M401.788,462.119a.719.719,0,1,1-.716-.719A.717.717,0,0,1,401.788,462.119Z" transform="translate(-353.465 -412.706)" fill="#fff"/>
      <path id="XMLID_5071_" d="M403.41,479.389a.72.72,0,1,1-.719-.719A.72.72,0,0,1,403.41,479.389Z" transform="translate(-354.658 -425.428)" fill="#fff"/>
      <path id="XMLID_5070_" d="M332.968,470.4a.719.719,0,1,1-.716-.719A.717.717,0,0,1,332.968,470.4Z" transform="translate(-302.765 -418.806)" fill="#fff"/>
      <path id="XMLID_5069_" d="M297.088,472.059a.719.719,0,1,1-.716-.719A.719.719,0,0,1,297.088,472.059Z" transform="translate(-276.332 -420.028)" fill="#fff"/>
      <path id="XMLID_5068_" d="M329.768,486.679a.719.719,0,1,1-.716-.719A.718.718,0,0,1,329.768,486.679Z" transform="translate(-300.407 -430.799)" fill="#fff"/>
      <path id="XMLID_5067_" d="M374.268,520.589a.719.719,0,1,1-.716-.719A.719.719,0,0,1,374.268,520.589Z" transform="translate(-333.19 -455.781)" fill="#fff"/>
      <path id="XMLID_5066_" d="M360.938,522.389a.719.719,0,1,1-.716-.719A.717.717,0,0,1,360.938,522.389Z" transform="translate(-323.37 -457.107)" fill="#fff"/>
      <path id="XMLID_5065_" d="M377.558,550.829a.719.719,0,1,1-.716-.719A.717.717,0,0,1,377.558,550.829Z" transform="translate(-335.614 -478.058)" fill="#fff"/>
      <path id="XMLID_5064_" d="M353.668,557.659a.719.719,0,1,1-.716-.719A.717.717,0,0,1,353.668,557.659Z" transform="translate(-318.014 -483.09)" fill="#fff"/>
      <path id="XMLID_5063_" d="M386.748,580.519a.719.719,0,1,1-.716-.719A.717.717,0,0,1,386.748,580.519Z" transform="translate(-342.384 -499.931)" fill="#fff"/>
      <path id="XMLID_5062_" d="M413.418,576.509a.719.719,0,1,1-.716-.719A.717.717,0,0,1,413.418,576.509Z" transform="translate(-362.032 -496.977)" fill="#fff"/>
      <path id="XMLID_5061_" d="M407.92,595.2a.72.72,0,1,1-.719-.719A.718.718,0,0,1,407.92,595.2Z" transform="translate(-357.98 -510.746)" fill="#fff"/>
      <path id="XMLID_5060_" d="M386.968,612.759a.719.719,0,1,1-.716-.719A.718.718,0,0,1,386.968,612.759Z" transform="translate(-342.547 -523.682)" fill="#fff"/>
      <path id="XMLID_5059_" d="M372.75,604.1a.72.72,0,1,1-.719-.719A.72.72,0,0,1,372.75,604.1Z" transform="translate(-332.071 -517.303)" fill="#fff"/>
      <path id="XMLID_5058_" d="M376.508,618.819a.719.719,0,1,1-.716-.719A.718.718,0,0,1,376.508,618.819Z" transform="translate(-334.841 -528.147)" fill="#fff"/>
      <path id="XMLID_5057_" d="M324.53,618.3a.72.72,0,1,1-.719-.719A.718.718,0,0,1,324.53,618.3Z" transform="translate(-296.547 -527.764)" fill="#fff"/>
      <path id="XMLID_5056_" d="M282.64,621.459a.72.72,0,1,1-.719-.719A.721.721,0,0,1,282.64,621.459Z" transform="translate(-265.686 -530.092)" fill="#fff"/>
      <path id="XMLID_5055_" d="M278.238,646.669a.719.719,0,1,1-.716-.719A.718.718,0,0,1,278.238,646.669Z" transform="translate(-262.445 -548.664)" fill="#fff"/>
      <path id="XMLID_5054_" d="M314.76,656.079a.72.72,0,1,1-.719-.719A.72.72,0,0,1,314.76,656.079Z" transform="translate(-289.349 -555.596)" fill="#fff"/>
      <path id="XMLID_5053_" d="M319.908,636.539a.719.719,0,1,1-.716-.719A.721.721,0,0,1,319.908,636.539Z" transform="translate(-293.143 -541.201)" fill="#fff"/>
      <path id="XMLID_5052_" d="M353.15,642.979a.72.72,0,1,1-.719-.719A.721.721,0,0,1,353.15,642.979Z" transform="translate(-317.631 -545.946)" fill="#fff"/>
      <path id="XMLID_5051_" d="M379.42,651.229a.72.72,0,1,1-.719-.719A.718.718,0,0,1,379.42,651.229Z" transform="translate(-336.984 -552.023)" fill="#fff"/>
      <path id="XMLID_5050_" d="M296.27,661.449a.72.72,0,1,1-.719-.719A.72.72,0,0,1,296.27,661.449Z" transform="translate(-275.728 -559.552)" fill="#fff"/>
      <path id="XMLID_5049_" d="M271.738,698.469a.719.719,0,1,1-.716-.719A.717.717,0,0,1,271.738,698.469Z" transform="translate(-257.656 -586.825)" fill="#fff"/>
      <path id="XMLID_5048_" d="M223.718,743.809a.719.719,0,1,1-.716-.719A.717.717,0,0,1,223.718,743.809Z" transform="translate(-222.28 -620.227)" fill="#fff"/>
      <path id="XMLID_5047_" d="M311.888,722.529a.719.719,0,1,1-.716-.719A.718.718,0,0,1,311.888,722.529Z" transform="translate(-287.235 -604.55)" fill="#fff"/>
      <path id="XMLID_5046_" d="M331.718,707.289a.719.719,0,1,1-.716-.719A.719.719,0,0,1,331.718,707.289Z" transform="translate(-301.844 -593.323)" fill="#fff"/>
      <path id="XMLID_5045_" d="M382.628,707.139a.719.719,0,1,1-.716-.719A.717.717,0,0,1,382.628,707.139Z" transform="translate(-339.349 -593.212)" fill="#fff"/>
      <path id="XMLID_5044_" d="M397.62,699.459a.72.72,0,1,1-.719-.719A.72.72,0,0,1,397.62,699.459Z" transform="translate(-350.392 -587.554)" fill="#fff"/>
      <path id="XMLID_5043_" d="M430.378,667.329a.719.719,0,1,1-.716-.719A.72.72,0,0,1,430.378,667.329Z" transform="translate(-374.527 -563.884)" fill="#fff"/>
      <path id="XMLID_5042_" d="M439.748,711.2a.719.719,0,1,1-.716-.719A.719.719,0,0,1,439.748,711.2Z" transform="translate(-381.43 -596.203)" fill="#fff"/>
      <path id="XMLID_5041_" d="M402.94,747.019a.72.72,0,1,1-.719-.719A.721.721,0,0,1,402.94,747.019Z" transform="translate(-354.312 -622.592)" fill="#fff"/>
      <path id="XMLID_5040_" d="M339.868,745.409a.719.719,0,1,1-.716-.719A.717.717,0,0,1,339.868,745.409Z" transform="translate(-307.848 -621.406)" fill="#fff"/>
      <path id="XMLID_5039_" d="M305.778,791.909a.719.719,0,1,1-.716-.719A.717.717,0,0,1,305.778,791.909Z" transform="translate(-282.734 -655.663)" fill="#fff"/>
      <path id="XMLID_5038_" d="M366.48,796.119a.72.72,0,1,1-.719-.719A.72.72,0,0,1,366.48,796.119Z" transform="translate(-327.452 -658.764)" fill="#fff"/>
    </g>
  </g>
</svg>
